<svg width="640" height="640" viewBox="0 0 640 640" fill="none" xmlns="http://www.w3.org/2000/svg">
<rect x="64.5" y="64.5" width="511" height="511" rx="19.5" fill="#D9D9D9" stroke="#883BBF"/>
<path fill-rule="evenodd" clip-rule="evenodd" d="M97 103.984C97 100.127 100.127 97 103.984 97H124.938C128.795 97 131.922 100.127 131.922 103.984V509.078H537.016C540.873 509.078 544 512.205 544 516.062V537.016C544 540.873 540.873 544 537.016 544H110.969C103.254 544 97 537.746 97 530.031V103.984Z" fill="#873BBF"/>
<path fill-rule="evenodd" clip-rule="evenodd" d="M491.838 172.885C500.468 163.554 516.062 169.66 516.062 182.37V439.234C516.062 446.949 509.808 453.203 502.094 453.203H215.734C208.02 453.203 201.766 446.949 201.766 439.234V322.536C201.766 318.809 203.255 315.236 205.903 312.612L302.782 216.64C308.179 211.293 316.859 211.24 322.321 216.52L390.518 282.443L491.838 172.885ZM481.141 235.886L401.612 321.881C396.292 327.633 387.282 327.886 381.648 322.44L312.792 255.879L236.688 331.273V418.281H481.141V235.886Z" fill="#873BBF"/>
</svg>
